<svg width="756" height="420" viewBox="0 0 756 420" fill="none" xmlns="http://www.w3.org/2000/svg">
<line x1="246" y1="319" x2="246" y2="275" stroke="#D9D9D9" stroke-width="6"/>
<path d="M249 318.5C249 345.419 235.883 371.236 212.535 390.271C189.187 409.306 157.519 420 124.5 420C91.4806 420 59.8135 409.306 36.4652 390.271C13.1169 371.236 4.9858e-06 345.419 0 318.5L6.225 318.5C6.225 344.074 18.6861 368.6 40.867 386.683C63.0478 404.766 93.1315 414.925 124.5 414.925C155.868 414.925 185.952 404.766 208.133 386.683C230.314 368.6 242.775 344.073 242.775 318.5H249Z" fill="#D9D9D9"/>
<path d="M244 101.5C244 74.5805 257.117 48.7636 280.465 29.7287C303.813 10.6937 335.481 9.30615e-06 368.5 0C401.519 -9.30613e-06 433.186 10.6937 456.535 29.7286C479.883 48.7635 493 74.5805 493 101.5L486.775 101.5C486.775 75.9264 474.314 51.4004 452.133 33.3172C429.952 15.234 399.868 5.075 368.5 5.075C337.131 5.07501 307.048 15.234 284.867 33.3172C262.686 51.4004 250.225 75.9265 250.225 101.5L244 101.5Z" fill="#D9D9D9"/>
<line x1="247" y1="101" x2="247" y2="206" stroke="#D9D9D9" stroke-width="6"/>
<line x1="3" y1="92" x2="3" y2="319" stroke="#D9D9D9" stroke-width="6"/>
<line x1="490" y1="101" x2="490" y2="131" stroke="#D9D9D9" stroke-width="6"/>
<path d="M736 317.5C736 344.419 722.883 370.236 699.535 389.271C676.187 408.306 644.519 419 611.5 419C578.481 419 546.813 408.306 523.465 389.271C500.117 370.236 487 344.419 487 317.5L493.225 317.5C493.225 343.074 505.686 367.6 527.867 385.683C550.048 403.766 580.132 413.925 611.5 413.925C642.868 413.925 672.952 403.766 695.133 385.683C717.314 367.6 729.775 343.073 729.775 317.5H736Z" fill="#D9D9D9"/>
<line x1="490" y1="190" x2="490" y2="318.004" stroke="#D9D9D9" stroke-width="6"/>
<path d="M735.121 259.879C733.95 258.707 732.05 258.707 730.879 259.879L711.787 278.971C710.615 280.142 710.615 282.042 711.787 283.213C712.958 284.385 714.858 284.385 716.029 283.213L733 266.243L749.971 283.213C751.142 284.385 753.042 284.385 754.213 283.213C755.385 282.042 755.385 280.142 754.213 278.971L735.121 259.879ZM733 318H736V262H733H730V318H733Z" fill="#D9D9D9"/>
</svg>
